<?xml version="1.0" encoding="UTF-8"?><svg id="Calque_1" xmlns="http://www.w3.org/2000/svg" viewBox="0 0 260 278.07"><defs><style>.cls-1,.cls-2{stroke-width:0px;}.cls-2{fill:#fff;}</style></defs><path class="cls-2" d="m0,258.09h260v19.98H0v-19.98Z"/><path class="cls-1" d="m88.7,13.08c2.07-3.51,3.9-6.85,5.97-10.04,2.67-4.12,8.73-4.03,11.35.13,2.03,3.22,3.9,6.53,5.89,9.88,8.8-1.89,17.1-3.61,25.36-5.46,4.35-.97,8.55-.29,10.37,3.75,1.25,2.78,1.36,6.88.26,9.72-1.63,4.21-5.95,4.99-10.23,4.11-7.34-1.51-14.64-3.19-21.97-4.74-2.86-.6-8.28,3.21-8.36,6.11-.18,6.13-.05,12.26-.05,18.62,1.56.1,2.68.2,3.81.25,6.11.27,8.06,1.77,9.06,7.74.73,4.37,3.25,6.56,7.42,6.61,11.65.13,23.3.05,35.27.05,1.14-7.96,4.98-13.28,13.87-14.36,15.12.69,17.16,51.73,0,51.44-7.19.82-11.8-3.54-13.78-13.29h-42.22c-4.22,12.11-6.95,14.04-20.12,13.96-3.32-.02-6.79.21-9.92-.66-6.51-1.8-9.42-6.96-10.52-13.58-12.25,0-24.4-.07-36.55.04-3.94.03-6.18,2.21-6.2,6.28-.03,6.33-.13,12.67.1,18.99.05,1.26,1.52,2.43,2.23,3.71.61,1.09,1.74,2.53,1.43,3.34-.43,1.12-2,2.52-3.1,2.54-9.66.2-19.33.18-28.99.02-1.02-.02-2.71-1.27-2.84-2.14-.19-1.18.78-2.57,1.34-3.83.72-1.62,2.15-3.18,2.19-4.79.21-9.16.09-18.33.1-27.49.02-13.23,6.79-20.1,19.91-20.13,13.66-.03,27.33.01,40.99-.02,6.82-.02,8.35-1.28,9.76-7.89.84-3.91,3.21-6.13,7.19-6.46,1.64-.14,3.31-.02,5.64-.02,0-6.74.18-13.18-.09-19.6-.11-2.54-5.92-5.94-8.49-5.39-7,1.5-13.98,3.07-20.98,4.56-3.95.84-7.71.65-10.49-2.79-2.55-3.16-2.94-6.72-.96-10.26,2.2-3.93,5.74-5.48,10.15-4.56,8.46,1.76,16.9,3.64,26.21,5.66Z"/></svg>